<svg width="1080" height="1080" xmlns="http://www.w3.org/2000/svg" xml:space="preserve" version="1.1">
 <desc>Created with Fabric.js 5.2.4</desc>

 <g>
  <title>Layer 1</title>
  <rect id="svg_1" fill="transparent" height="100%" width="100%" y="0" x="0"/>
  <g id="390e095b-cc51-4067-8b5c-4ec57adf4ce2" transform="matrix(1 0 0 1 540 540)"/>
  <g id="svg_3" transform="matrix(1.50004 0 0 1.50004 539.998 540.01)">
   <g id="svg_4" vector-effect="non-scaling-stroke">
    <g id="svg_5">
     <path id="svg_6" fill-rule=" nonzero" fill=" rgb(250,143,82)" stroke-miterlimit="4" stroke-linejoin=" miter" stroke-dashoffset="0" stroke-dasharray=" none" stroke=" none" stroke-linecap=" butt" d="m204.5,-352.32001c5.73325,5.46626 6.40106,13.23927 7.34375,20.76953c0.09499,0.75048 0.18998,1.50095 0.28784,2.27417c0.90224,8.32548 0.89828,16.65784 0.89746,25.02197c0.00219,2.50107 0.0204,5.0017 0.03931,7.50269c0.04524,12.67525 -1.14689,24.72467 -4.16211,37.07617c-0.23493,1.02094 -0.23493,1.02094 -0.47461,2.0625c-0.84495,3.5414 -1.86737,6.87435 -3.2168,10.25781c-1.70683,4.29728 -1.70683,4.29728 -1.37109,8.80469c2.09558,2.54407 4.51687,4.65409 7,6.8125c1.38623,1.2478 2.77165,2.49649 4.15625,3.7461c0.66773,0.59538 1.33547,1.19077 2.02344,1.80419c6.06613,5.45595 11.58702,11.38716 16.82031,17.63721c0.45456,0.53545 0.90911,1.07089 1.37744,1.62256c9.4856,11.22579 19.85449,23.85515 18.62256,39.37744c-2.0819,4.15702 -4.94427,7.26303 -8.125,10.625c-3.50927,3.74855 -6.87097,7.53466 -10.0625,11.5625c-9.1175,11.31095 -19.48314,21.66834 -29.87109,31.8086c-1.99276,1.85564 -1.99276,1.85564 -2.94141,4.0039c10.12579,-5.26437 19.12639,-10.85657 27.51367,-18.62793c1.41607,-1.30721 2.86459,-2.579 4.31446,-3.84863c6.65337,-6.14011 11.25464,-12.86092 15.84985,-20.62305c7.8425,-13.16063 7.8425,-13.16063 13.32202,-15.90039c4.30607,-0.49685 6.3445,-0.44995 9.96484,2.03516c3.48342,3.07968 5.33491,6.64153 7.34766,10.77734c0.77263,1.52581 1.54743,3.05053 2.32422,4.57422c0.38978,0.77005 0.77956,1.54011 1.18115,2.3335c1.8301,3.52942 3.82194,6.96107 5.80713,10.40478c4.2343,7.43966 7.94197,15.03624 11.375,22.875c0.73477,1.64549 0.73477,1.64549 1.48438,3.32422c19.55286,46.0964 25.50228,96.04764 24.51562,145.67578c-0.01402,0.78697 -0.02804,1.57395 -0.04248,2.38477c-0.10774,4.56279 -0.4673,9.08027 -0.95752,13.61523c-0.10796,1.01868 -0.21592,2.03736 -0.32715,3.08692c-2.7744,25.18138 -7.76533,49.77079 -15.96094,73.78466c-0.71438,2.13581 -1.37862,4.28189 -2.03222,6.43702c-12.01726,38.95143 -34.75285,75.35409 -61.67969,105.6914c-1.2713,1.47876 -2.54222,2.95786 -3.8125,4.4375c-2.69599,3.07461 -5.54954,5.947 -8.46875,8.8086c-1.67296,1.70717 -3.19022,3.47983 -4.71875,5.3164c-8.0959,9.37228 -17.74818,17.66705 -27.41016,25.3711c-1.7356,1.38481 -3.45187,2.79419 -5.14843,4.22656c-47.31735,39.86469 -115.32717,67.87834 -177.44141,69.83984c-0.6882,0.0232 -1.3764,0.04641 -2.08545,0.07031c-41.78404,1.3568 -82.24954,-3.3071 -121.91455,-17.07031c-0.64985,-0.22091 -1.2997,-0.44182 -1.96924,-0.66943c-32.18789,-11.03655 -64.04748,-27.26455 -90.03076,-49.33057c-1.90941,-1.55612 -3.8273,-3.1014 -5.74585,-4.64624c-17.45304,-14.07171 -34.59013,-28.42677 -48.25415,-46.35376c-0.81936,-1.0613 -0.81936,-1.0613 -1.65527,-2.14404c-8.17274,-10.6037 -15.95041,-21.35659 -23.021,-32.72754c-1.37748,-2.21484 -2.77052,-4.41944 -4.16357,-6.62451c-5.5905,-8.92055 -10.65456,-17.95312 -15.17432,-27.45996c-1.00086,-2.07509 -2.04188,-4.12585 -3.09131,-6.17676c-12.09771,-24.0172 -19.60161,-49.59549 -24.89453,-75.86719c-0.17999,-0.8793 -0.35997,-1.7586 -0.54541,-2.66455c-1.01824,-5.09122 -1.81759,-10.18315 -2.45459,-15.33545c-0.10151,-0.79181 -0.20303,-1.58361 -0.30762,-2.39941c-3.64912,-30.01032 -3.30733,-61.73753 1.30762,-91.60059c0.23348,-1.55703 0.23348,-1.55703 0.47168,-3.14551c3.95955,-25.44069 11.30321,-51.21075 21.52832,-74.85449c0.59512,-1.42054 1.19017,-2.84112 1.78516,-4.26172c9.95457,-23.38662 22.18111,-46.56081 37.83984,-66.65234c2.46668,-3.20506 4.82275,-6.47323 7.17236,-9.76441c7.96045,-11.14621 16.37074,-21.58232 25.72217,-31.59497c2.50918,-2.68405 2.50918,-2.68405 4.67969,-5.57812c0.59426,-0.70899 1.18851,-1.41797 1.80078,-2.14844c0.66,0 1.32,0 2,0c0.20625,-0.55687 0.4125,-1.11375 0.625,-1.6875c1.51703,-2.55136 3.35253,-3.9896 5.64062,-5.83594c1.99672,-1.6999 3.85024,-3.46434 5.67188,-5.35156c0.60715,-0.61617 1.2143,-1.23234 1.83984,-1.86719c2.21759,-4.0951 0.53736,-8.08028 -0.60937,-12.37109c-0.32356,-1.05574 -0.64711,-2.11148 -0.98047,-3.19922c-1.64105,-5.6119 -3.08671,-11.23426 -4.375,-16.9375c-0.16669,-0.7197 -0.33338,-1.4394 -0.50513,-2.18091c-2.22048,-10.03038 -2.47335,-19.94816 -2.43237,-30.19409c0.00411,-1.23822 0.00822,-2.47645 0.01245,-3.7522c0.22581,-37.07883 0.22581,-37.07883 8.11255,-45.6228c5.44949,-3.75041 9.38241,-4.65269 15.9375,-4.5c0.8283,0.00991 1.65661,0.01982 2.51001,0.03003c8.24768,0.24376 15.68103,2.16078 23.55249,4.46997c2.10243,0.48672 4.20649,0.96649 6.3125,1.4375c4.84549,1.21625 9.16338,2.95603 13.65625,5.125c2.23925,1.06191 4.46354,2.05196 6.75,3c16.31135,6.78839 33.92796,16.11853 45.92969,29.35938c2.13163,2.356 2.13163,2.356 4.77734,2.03125c0.84949,-0.31454 1.69899,-0.62907 2.57422,-0.95313c0.9423,-0.33515 1.88461,-0.67031 2.85547,-1.01562c1.09957,-0.40735 2.19914,-0.81469 3.33203,-1.23438c46.72129,-16.09735 114.00458,-17.93469 160.5,1.0625c3.65111,1.30889 4.70213,1.33747 8.3125,0.1875c2.70282,-1.85279 2.70282,-1.85279 5.5,-4.25c23.32349,-18.66085 50.98392,-31.45599 80.125,-37.6875c0.98315,-0.21173 1.9663,-0.42346 2.97925,-0.6416c9.50807,-1.89757 18.81627,-3.30895 27.052,2.80957z" vector-effect="non-scaling-stroke"/>
    </g>
    <g id="svg_7" transform="matrix(1 0 0 1 0.22 -162.98)">
     <path id="svg_8" fill-rule=" nonzero" fill=" rgb(242,245,235)" stroke-miterlimit="4" stroke-linejoin=" miter" stroke-dashoffset="0" stroke-dasharray=" none" stroke=" none" stroke-linecap=" butt" d="m-17.07,-140.77c1.62893,-0.00855 1.62893,-0.00855 3.29077,-0.01727c2.29955,-0.00942 4.59912,-0.01597 6.89868,-0.01984c3.4319,-0.00958 6.86317,-0.04058 10.29493,-0.07227c19.21348,-0.09319 38.27753,1.27664 56.95312,6.06251c1.02674,0.25531 2.05348,0.51062 3.11133,0.77368c9.94559,2.54875 19.55451,5.81586 29.13867,9.47632c0.70463,0.25829 1.40927,0.51659 2.13525,0.78271c29.29994,10.75183 59.18871,30.00274 81.92334,51.39307c1.71831,1.61458 3.47519,3.10395 5.31641,4.57422c2.625,2.25 2.625,2.25 4.52344,4.67968c1.99006,2.43394 3.84343,4.07737 6.35156,5.94532c7.71475,6.0207 14.68738,12.86413 21.75,19.625c0.82113,0.77859 1.64227,1.55718 2.48828,2.35937c15.48478,15.0193 15.48478,15.0193 16.51172,21.64063c-1.37978,2.84671 -3.31834,5.18398 -5.3125,7.625c-0.55599,0.70785 -1.11198,1.41571 -1.68481,2.14501c-1.6502,2.09127 -3.32371,4.16181 -5.00269,6.22999c-0.83177,1.04604 -1.66262,2.09282 -2.49219,3.14062c-4.28607,5.33852 -8.7789,10.46491 -13.39062,15.52344c-1.90799,2.10512 -3.76766,4.24207 -5.61719,6.39844c-2.55413,2.93842 -5.23074,5.70098 -8,8.4375c-4.04743,4.00647 -7.82691,8.15009 -11.5,12.5c-0.81855,0.96421 -1.63711,1.92843 -2.48047,2.92187c-7.8839,8.59523 -7.8839,8.59523 -13.375,18.625c-1.42316,3.05032 -2.38219,3.49548 -5.45703,4.76563c-0.98871,0.41507 -1.97742,0.83015 -2.99609,1.25781c-3.62496,1.40395 -7.26312,2.76658 -10.90601,4.12304c-18.47887,6.9052 -35.56912,15.02479 -51.7854,26.30665c-0.95648,0.65355 -1.91297,1.3071 -2.89844,1.98046c-9.36468,6.59465 -18.11515,14.09063 -26.8435,21.49781c-7.56129,6.39747 -14.36986,7.12283 -24.03272,8.21923c-2.61271,0.35515 -5.18788,0.85107 -7.78003,1.33375c-7.12778,1.20126 -14.16493,1.39368 -21.38281,1.40625c-0.67548,0.00173 -1.35096,0.00346 -2.04691,0.00524c-11.40171,-0.01276 -21.83223,-1.50589 -32.76657,-4.78894c-2.83277,-0.82351 -5.69067,-1.47645 -8.5664,-2.13012c-8.09496,-1.87119 -15.79018,-4.52351 -23.48096,-7.63452c-1.51777,-0.61297 -3.03918,-1.21694 -4.56348,-1.81348c-21.32094,-8.37413 -40.40659,-20.46273 -59.59521,-32.84131c-3.08002,-1.98576 -6.1726,-3.9412 -9.30469,-5.84375c-15.15459,-9.2087 -29.33016,-19.7927 -42.73828,-31.39062c-0.68707,-0.57622 -1.37414,-1.15243 -2.08203,-1.7461c-8.39897,-7.13314 -16.21142,-15.07183 -23.34375,-23.46484c-1.61542,-1.83589 -3.31656,-3.52711 -5.07422,-5.22656c-3.12024,-3.07892 -5.77408,-6.35901 -8.42188,-9.84766c-2.62176,-3.42505 -5.3174,-6.78743 -8.01562,-10.15234c-0.77332,-0.97043 -0.77332,-0.97043 -1.56226,-1.96045c-2.31661,-2.90338 -4.65013,-5.77903 -7.05102,-8.61377c-0.72574,-0.86239 -1.45149,-1.72477 -2.19922,-2.61328c-0.63422,-0.73477 -1.26844,-1.46954 -1.92188,-2.22657c-1.6516,-2.67171 -1.81346,-4.05684 -1.32812,-7.14843c1.25,-2.10547 1.25,-2.10547 3,-4.1875c0.63938,-0.77473 1.27875,-1.54946 1.9375,-2.34766c1.02094,-1.2201 1.02094,-1.2201 2.0625,-2.46484c1.3346,-1.70735 2.66793,-3.41569 4,-5.125c3.41452,-4.2599 7.06593,-8.10006 11,-11.875c0.74121,-0.75926 1.48242,-1.51852 2.24609,-2.30079c3.84749,-3.77108 7.9467,-7.22022 12.05078,-10.70703c3.87237,-3.31917 7.5205,-6.77037 11.09961,-10.40283c3.90091,-3.86646 8.31071,-7.17462 12.60352,-10.58935c0.56203,-0.44957 1.12406,-0.89913 1.70312,-1.36231c7.26524,-5.80656 14.59377,-11.41872 22.29688,-16.63769c1.03641,-0.73477 2.07281,-1.46954 3.14062,-2.22657c32.53667,-22.77152 70.65018,-35.88685 109.85938,-40.77343c1.19311,-0.17435 2.38622,-0.3487 3.61548,-0.52833c5.2243,-0.64783 10.43871,-0.65291 15.69702,-0.6748z" vector-effect="non-scaling-stroke"/>
    </g>
    <g id="svg_9">
     <path id="svg_10" fill-rule=" nonzero" fill=" rgb(69,36,12)" stroke-miterlimit="4" stroke-linejoin=" miter" stroke-dashoffset="0" stroke-dasharray=" none" stroke=" none" stroke-linecap=" butt" d="m204.5,-352.32001c5.73325,5.46626 6.40106,13.23927 7.34375,20.76953c0.09499,0.75048 0.18998,1.50095 0.28784,2.27417c0.90224,8.32548 0.89828,16.65784 0.89746,25.02197c0.00219,2.50107 0.0204,5.0017 0.03931,7.50269c0.04524,12.67525 -1.14689,24.72467 -4.16211,37.07617c-0.23493,1.02094 -0.23493,1.02094 -0.47461,2.0625c-0.84495,3.5414 -1.86737,6.87435 -3.2168,10.25781c-1.70683,4.29728 -1.70683,4.29728 -1.37109,8.80469c2.09558,2.54407 4.51687,4.65409 7,6.8125c1.38623,1.2478 2.77165,2.49649 4.15625,3.7461c0.66773,0.59538 1.33547,1.19077 2.02344,1.80419c6.06613,5.45595 11.58702,11.38716 16.82031,17.63721c0.45456,0.53545 0.90911,1.07089 1.37744,1.62256c9.4856,11.22579 19.85449,23.85515 18.62256,39.37744c-2.0819,4.15702 -4.94427,7.26303 -8.125,10.625c-3.50927,3.74855 -6.87097,7.53466 -10.0625,11.5625c-9.1175,11.31095 -19.48314,21.66834 -29.87109,31.8086c-1.99276,1.85564 -1.99276,1.85564 -2.94141,4.0039c10.12579,-5.26437 19.12639,-10.85657 27.51367,-18.62793c1.41607,-1.30721 2.86459,-2.579 4.31446,-3.84863c6.65337,-6.14011 11.25464,-12.86092 15.84985,-20.62305c7.8425,-13.16063 7.8425,-13.16063 13.32202,-15.90039c4.30607,-0.49685 6.3445,-0.44995 9.96484,2.03516c3.48342,3.07968 5.33491,6.64153 7.34766,10.77734c0.77263,1.52581 1.54743,3.05053 2.32422,4.57422c0.38978,0.77005 0.77956,1.54011 1.18115,2.3335c1.8301,3.52942 3.82194,6.96107 5.80713,10.40478c4.2343,7.43966 7.94197,15.03624 11.375,22.875c0.73477,1.64549 0.73477,1.64549 1.48438,3.32422c19.55286,46.0964 25.50228,96.04764 24.51562,145.67578c-0.01402,0.78697 -0.02804,1.57395 -0.04248,2.38477c-0.10774,4.56279 -0.4673,9.08027 -0.95752,13.61523c-0.10796,1.01868 -0.21592,2.03736 -0.32715,3.08692c-2.7744,25.18138 -7.76533,49.77079 -15.96094,73.78466c-0.71438,2.13581 -1.37862,4.28189 -2.03222,6.43702c-12.01726,38.95143 -34.75285,75.35409 -61.67969,105.6914c-1.2713,1.47876 -2.54222,2.95786 -3.8125,4.4375c-2.69599,3.07461 -5.54954,5.947 -8.46875,8.8086c-1.67296,1.70717 -3.19022,3.47983 -4.71875,5.3164c-8.0959,9.37228 -17.74818,17.66705 -27.41016,25.3711c-1.7356,1.38481 -3.45187,2.79419 -5.14843,4.22656c-47.31735,39.86469 -115.32717,67.87834 -177.44141,69.83984c-0.6882,0.0232 -1.3764,0.04641 -2.08545,0.07031c-41.78404,1.3568 -82.24954,-3.3071 -121.91455,-17.07031c-0.64985,-0.22091 -1.2997,-0.44182 -1.96924,-0.66943c-32.18789,-11.03655 -64.04748,-27.26455 -90.03076,-49.33057c-1.90941,-1.55612 -3.8273,-3.1014 -5.74585,-4.64624c-17.45304,-14.07171 -34.59013,-28.42677 -48.25415,-46.35376c-0.81936,-1.0613 -0.81936,-1.0613 -1.65527,-2.14404c-8.17274,-10.6037 -15.95041,-21.35659 -23.021,-32.72754c-1.37748,-2.21484 -2.77052,-4.41944 -4.16357,-6.62451c-5.5905,-8.92055 -10.65456,-17.95312 -15.17432,-27.45996c-1.00086,-2.07509 -2.04188,-4.12585 -3.09131,-6.17676c-12.09771,-24.0172 -19.60161,-49.59549 -24.89453,-75.86719c-0.17999,-0.8793 -0.35997,-1.7586 -0.54541,-2.66455c-1.01824,-5.09122 -1.81759,-10.18315 -2.45459,-15.33545c-0.10151,-0.79181 -0.20303,-1.58361 -0.30762,-2.39941c-3.64912,-30.01032 -3.30733,-61.73753 1.30762,-91.60059c0.23348,-1.55703 0.23348,-1.55703 0.47168,-3.14551c3.95955,-25.44069 11.30321,-51.21075 21.52832,-74.85449c0.59512,-1.42054 1.19017,-2.84112 1.78516,-4.26172c9.95457,-23.38662 22.18111,-46.56081 37.83984,-66.65234c2.46668,-3.20506 4.82275,-6.47323 7.17236,-9.76441c7.96045,-11.14621 16.37074,-21.58232 25.72217,-31.59497c2.50918,-2.68405 2.50918,-2.68405 4.67969,-5.57812c0.59426,-0.70899 1.18851,-1.41797 1.80078,-2.14844c0.66,0 1.32,0 2,0c0.20625,-0.55687 0.4125,-1.11375 0.625,-1.6875c1.51703,-2.55136 3.35253,-3.9896 5.64062,-5.83594c1.99672,-1.6999 3.85024,-3.46434 5.67188,-5.35156c0.60715,-0.61617 1.2143,-1.23234 1.83984,-1.86719c2.21759,-4.0951 0.53736,-8.08028 -0.60937,-12.37109c-0.32356,-1.05574 -0.64711,-2.11148 -0.98047,-3.19922c-1.64105,-5.6119 -3.08671,-11.23426 -4.375,-16.9375c-0.16669,-0.7197 -0.33338,-1.4394 -0.50513,-2.18091c-2.22048,-10.03038 -2.47335,-19.94816 -2.43237,-30.19409c0.00411,-1.23822 0.00822,-2.47645 0.01245,-3.7522c0.22581,-37.07883 0.22581,-37.07883 8.11255,-45.6228c5.44949,-3.75041 9.38241,-4.65269 15.9375,-4.5c0.8283,0.00991 1.65661,0.01982 2.51001,0.03003c8.24768,0.24376 15.68103,2.16078 23.55249,4.46997c2.10243,0.48672 4.20649,0.96649 6.3125,1.4375c4.84549,1.21625 9.16338,2.95603 13.65625,5.125c2.23925,1.06191 4.46354,2.05196 6.75,3c16.31135,6.78839 33.92796,16.11853 45.92969,29.35938c2.13163,2.356 2.13163,2.356 4.77734,2.03125c0.84949,-0.31454 1.69899,-0.62907 2.57422,-0.95313c0.9423,-0.33515 1.88461,-0.67031 2.85547,-1.01562c1.09957,-0.40735 2.19914,-0.81469 3.33203,-1.23438c46.72129,-16.09735 114.00458,-17.93469 160.5,1.0625c3.65111,1.30889 4.70213,1.33747 8.3125,0.1875c2.70282,-1.85279 2.70282,-1.85279 5.5,-4.25c23.32349,-18.66085 50.98392,-31.45599 80.125,-37.6875c0.98315,-0.21173 1.9663,-0.42346 2.97925,-0.6416c9.50807,-1.89757 18.81627,-3.30895 27.052,2.80957zm-268.09375,54.45703c-1.54446,0.38672 -1.54446,0.38672 -3.12012,0.78125c-28.44773,7.31786 -55.37727,18.53564 -79.44238,35.53125c-1.47049,1.01167 -2.94188,2.02205 -4.41406,3.03125c-8.16949,5.63984 -16.03216,11.51858 -23.58594,17.96875c-1.17813,0.9925 -2.35653,1.98466 -3.53516,2.97656c-5.43225,4.59295 -10.75485,9.17513 -15.6875,14.3086c-3.17852,3.06675 -6.67187,5.76007 -10.1289,8.5039c-2.71911,2.26994 -5.17223,4.67988 -7.64844,7.21094c-1.2027,1.16789 -1.2027,1.16789 -2.42969,2.35938c-5.36462,5.24465 -10.11837,10.61077 -14.57031,16.64062c-0.77924,0.92619 -0.77924,0.92619 -1.57422,1.8711c-2.29409,2.82204 -3.38941,4.80762 -3.80078,8.4414c1.7678,4.74093 4.5256,7.54229 7.99219,11.17188c2.03136,2.14458 3.84894,4.29201 5.63281,6.64062c7.69376,10.05009 15.44148,19.92711 24.5625,28.72656c1.97132,1.93612 3.77553,3.9186 5.5625,6.02344c7.41165,8.6178 15.47619,16.37982 24.625,23.125c1.46493,1.14341 2.92972,2.28698 4.39233,3.43335c11.08177,8.64496 22.46004,16.89908 34.60035,23.99707c4.71664,2.76415 9.32872,5.66848 13.927,8.62525c4.67751,3.00671 9.37549,5.98058 14.08032,8.94433c0.78858,0.49822 1.57717,0.99645 2.38965,1.50977c14.12287,8.82908 29.17508,15.33344 44.61035,21.49023c1.15242,0.46044 1.15242,0.46044 2.32812,0.93018c10.91777,4.2552 22.44221,6.26755 33.91211,8.46313c2.75977,0.60669 2.75977,0.60669 6.16626,1.65747c6.09685,1.61048 12.26309,1.29207 18.53101,1.26172c0.69436,-0.00049 1.38872,-0.00099 2.10413,-0.00149c9.14619,-0.01996 17.85645,-0.48648 26.78649,-2.59226c3.10216,-0.70295 6.00116,-0.98486 9.17188,-1.15625c9.64821,-0.81595 15.48271,-6.46389 22.54687,-12.58203c24.61617,-21.31517 51.85816,-36.13355 82.42579,-47.10547c7.46811,-2.35267 7.46811,-2.35267 12.68359,-7.74219c0.44344,-1.03382 0.88688,-2.06765 1.34375,-3.13281c4.71979,-7.32458 10.32242,-13.75317 16.26562,-20.08203c2.51783,-2.68688 4.97674,-5.41508 7.42188,-8.16797c3.27813,-3.65795 6.66002,-7.16072 10.19531,-10.57031c10.50448,-10.81457 20.07812,-22.87652 29.11719,-34.92969c0.43933,-0.55961 0.87866,-1.11923 1.3313,-1.6958c1.34456,-1.75241 1.34456,-1.75241 2.6687,-4.5542c-0.78831,-4.64955 -4.21407,-7.97742 -7.25,-11.4375c-0.52433,-0.60401 -1.04865,-1.20801 -1.58887,-1.83032c-9.25598,-10.5225 -19.27777,-20.29911 -30.13379,-29.15796c-0.53028,-0.43538 -1.06057,-0.87076 -1.60693,-1.31934c-1.52428,-1.24886 -3.05612,-2.48847 -4.58838,-3.72753c-2.95181,-2.63425 -5.31536,-5.48149 -7.83203,-8.52735c-3.50249,-3.19871 -7.26641,-6.07701 -11,-9c-0.62487,-0.49452 -1.24975,-0.98903 -1.89355,-1.49853c-10.31592,-8.14772 -20.90687,-15.6189 -32.10645,-22.50147c-0.70657,-0.43441 -1.41313,-0.86883 -2.14111,-1.3164c-40.84348,-24.92838 -84.38647,-37.0928 -132.17017,-36.99927c-3.35426,0.00315 -6.70762,-0.02037 -10.06177,-0.04566c-18.60985,-0.05538 -36.97752,1.44839 -55.06445,6.04883zm-181.5625,134.3125c-0.42628,0.67297 -0.85255,1.34594 -1.29175,2.03931c-3.005,4.73449 -6.02414,9.45728 -9.10278,14.14429c-7.32022,11.20912 -13.85652,22.50858 -19.56201,34.6206c-0.9253,1.94715 -1.88216,3.87228 -2.85987,5.79346c-13.6727,27.63091 -22.47262,59.482 -25.92334,90.12256c-0.26048,2.2818 -0.56649,4.55461 -0.87353,6.83056c-3.48615,28.39708 -3.30377,59.25653 1.61328,87.44922c0.17161,0.98694 0.34321,1.97388 0.52002,2.99072c7.2148,39.99413 21.13512,78.93297 43.47998,113.00928c0.44312,0.68111 0.88623,1.36222 1.34277,2.06397c9.35747,14.2891 20.1011,27.37409 31.65723,39.93603c1.50065,1.68692 3.00064,3.37443 4.5,5.0625c6.09125,6.75864 12.44239,13.15261 19.35547,19.07031c2.49579,2.17302 4.9077,4.42728 7.33203,6.67969c13.1459,11.89561 27.66369,21.04918 42.8125,30.1875c0.99725,0.60232 1.9945,1.20463 3.02197,1.8252c6.583,3.91341 13.25344,7.39007 20.22803,10.5498c1.52996,0.6961 1.52996,0.6961 3.09082,1.40625c7.38205,3.30803 14.84369,6.3563 22.40918,9.21875c0.95036,0.36142 1.90072,0.72284 2.87988,1.09522c5.78408,2.13337 11.56835,3.8026 17.573,5.19995c2.93025,0.73838 5.75256,1.6607 8.60962,2.64233c6.0881,1.90985 12.21664,3.0966 18.5,4.1875c0.91177,0.15848 1.82354,0.31695 2.76294,0.48023c2.9708,0.49561 5.94589,0.94898 8.92456,1.39477c1.12277,0.18095 2.24555,0.36191 3.40234,0.54834c12.62474,1.84001 25.23383,1.84809 37.97266,1.82666c1.15696,-0.00021 2.31393,-0.00042 3.50595,-0.00064c16.76343,-0.03063 32.70887,-0.72404 49.11905,-4.37436c1.96802,-0.39301 3.93679,-0.78226 5.90625,-1.16797c49.2597,-9.89004 100.73641,-31.35012 137.53906,-66.41797c2.00004,-1.88994 4.02432,-3.68167 6.11328,-5.46875c5.1509,-4.48654 9.97721,-9.29506 14.80445,-14.12304c1.56305,-1.56087 3.13393,-3.11355 4.70532,-4.66602c6.42708,-6.39069 12.34003,-13.00776 17.93164,-20.15625c0.57323,-0.72461 1.14646,-1.44923 1.73706,-2.1958c15.54901,-19.78706 29.53575,-40.35372 39.04028,-63.79639c1.14934,-2.82743 2.41097,-5.56534 3.72266,-8.32031c3.10827,-6.768 5.47087,-13.80241 7.87158,-20.84473c0.49351,-1.44716 0.99501,-2.89159 1.49951,-4.33496c4.23034,-12.2847 7.62285,-24.76148 10.12891,-37.50781c0.24492,-1.08926 0.48984,-2.17851 0.74219,-3.30078c7.21363,-34.02304 7.88611,-71.41165 2.69775,-105.72949c-0.43806,-2.95706 -0.81263,-5.91699 -1.17822,-8.88379c-1.67274,-12.6913 -4.626,-24.86232 -8.13672,-37.14844c-0.20674,-0.72686 -0.41349,-1.45372 -0.6265,-2.2026c-4.25223,-14.82749 -9.51152,-29.10773 -15.9985,-43.1099c-0.4473,-0.98871 -0.89461,-1.97742 -1.35547,-2.99609c-2.98062,-6.48222 -6.34557,-12.59068 -10.14453,-18.62891c-0.72187,0.72188 -1.44375,1.44375 -2.1875,2.1875c-12.8125,12.8125 -12.8125,12.8125 -15.125,15c-1.91464,1.64372 -1.91464,1.64372 -1.6875,3.8125c-0.87398,0.39639 -0.87398,0.39639 -1.76562,0.80078c-2.32349,1.24705 -4.03025,2.62235 -5.98438,4.38672c-0.69223,0.62004 -1.38445,1.24008 -2.09766,1.87891c-0.71027,0.63808 -1.42054,1.27617 -2.15234,1.93359c-1.39464,1.20971 -2.79044,2.41809 -4.1875,3.625c-2.22691,1.93344 -4.2376,3.8328 -6.25,6c-3.5111,3.25419 -7.31481,5.2066 -11.5625,7.375c-1.07637,0.56332 -2.15273,1.12664 -3.26172,1.70703c-18.89085,9.76113 -38.59111,17.7645 -58.4165,25.39844c-18.42052,7.09703 -36.30501,15.2848 -52.32178,26.89453c-0.99129,0.68836 -1.98258,1.37672 -3.00391,2.08594c-5.62586,3.95923 -10.72614,8.26636 -15.76562,12.94531c-1.86037,1.64208 -3.61395,2.94781 -5.73047,4.21875c-2.91806,2.04265 -3.2994,3.49123 -4.5,6.75c-1.33333,0.66667 -2.66667,1.33333 -4,2c-1.36363,1.97947 -2.69419,3.98193 -4,6c-0.86625,0.84563 -1.7325,1.69125 -2.625,2.5625c-2.50259,2.25499 -2.50259,2.25499 -3.4375,5.125c-0.9375,2.3125 -0.9375,2.3125 -2.81641,3.16162c-2.7813,1.5091 -3.52147,3.09742 -4.99609,5.87744c-0.51047,0.95004 -1.02094,1.90008 -1.54688,2.87891c-0.52078,0.99645 -1.04156,1.99289 -1.57812,3.01953c-0.52078,0.97324 -1.04156,1.94649 -1.57813,2.94922c-1.49208,2.79953 -2.962,5.60934 -4.42187,8.42578c-0.40678,0.77988 -0.81356,1.55977 -1.23267,2.36328c-1.94504,3.79281 -3.2397,7.26736 -4.15405,11.4336c-0.70989,2.55016 -1.75579,4.79828 -2.86328,7.20312c-2.87757,6.73384 -4.52119,13.64043 -6.2395,20.74512c-11.70176,48.30135 -24.19892,90.95273 -66.81519,120.65723c-2.49775,1.74127 -4.95495,3.52448 -7.39062,5.35156c-0.9094,0.6741 -0.9094,0.6741 -1.83716,1.36181c-1.14319,0.84889 -2.28035,1.706 -3.40967,2.57325c-8.50958,6.25335 -16.97904,6.76925 -27.30786,6.62353c-1.15758,0.00322 -2.31516,0.00645 -3.50781,0.00977c-11.79944,-0.07494 -11.79944,-0.07494 -15.80469,-3.75977c-0.47438,-0.51562 -0.94875,-1.03125 -1.4375,-1.5625c-2.66871,-2.37743 -2.66871,-2.37743 -6,-3c0,-2.31 0,-4.62 0,-7c-0.66,0 -1.32,0 -2,0c3.03482,-3.03481 6.51475,-2.79051 10.66406,-3.33984c3.2997,-0.65299 6.13151,-1.66261 9.24707,-2.88648c3.47956,-1.28877 7.0635,-2.15381 10.65137,-3.08618c13.71308,-3.74006 24.67699,-8.01585 35.4375,-17.6875c1.9116,-1.5272 3.82826,-3.04808 5.75,-4.5625c4.62959,-3.80334 8.54821,-7.73589 12.25,-12.4375c0.7425,-0.92941 1.485,-1.85883 2.25,-2.8164c8.12503,-10.46365 12.64199,-21.05374 16.875,-33.5586c0.42926,-1.2375 0.85852,-2.475 1.30078,-3.75c2.27485,-6.64956 4.27868,-13.27862 5.91211,-20.11377c7.482,-31.2026 18.71052,-60.60861 34.43457,-88.54199c1.49494,-2.70267 2.88139,-5.43994 4.22754,-8.21924c-0.58153,0.06059 -1.16306,0.12117 -1.76221,0.1836c-51.22844,5.21205 -98.04878,-5.62932 -141.96826,-32.78907c-2.47638,-1.52163 -4.99445,-2.9552 -7.51953,-4.39453c-15.52065,-9.05704 -30.45539,-18.9382 -44.8916,-29.63232c-2.44949,-1.80269 -4.93784,-3.54914 -7.4209,-5.30518c-12.51463,-9.13125 -24.28927,-19.31613 -35.4375,-30.0625c-0.58411,-0.56219 -1.16821,-1.12438 -1.77002,-1.70361c-7.62169,-7.37734 -14.7034,-14.91659 -21.22998,-23.29639c-0.91382,-1.13666 -1.82927,-2.27201 -2.74609,-3.40625c-4.99193,-6.21191 -9.63821,-12.42206 -13.71875,-19.28906c-1.61744,-2.42821 -3.45134,-4.27351 -5.53516,-6.30469z" vector-effect="non-scaling-stroke"/>
    </g>
    <g id="svg_11" transform="matrix(1 0 0 1 171.43 7.95)">
     <path id="svg_12" fill-rule=" nonzero" fill=" rgb(241,244,232)" stroke-miterlimit="4" stroke-linejoin=" miter" stroke-dashoffset="0" stroke-dasharray=" none" stroke=" none" stroke-linecap=" butt" d="m94.41,-146.5c11.30743,5.65372 19.51937,36.32112 23.66797,48.63672c2.27233,7.0761 4.33006,14.20677 6.33203,21.36328c0.25717,0.87817 0.51434,1.75635 0.7793,2.66113c7.61366,26.01511 10.44766,54.08496 10.4707,81.08887c0.00101,0.82482 0.00201,1.64964 0.00305,2.49945c-0.01923,23.5334 -1.84783,46.79382 -7.25305,69.75055c-0.32436,1.4515 -0.64729,2.90332 -0.96875,4.35547c-6.17823,27.50358 -6.17823,27.50358 -10.92969,37.23828c-1.87357,4.09263 -3.35977,8.33667 -4.90796,12.56104c-0.24049,0.65274 -0.48098,1.30549 -0.72876,1.97802c-0.21019,0.57637 -0.42039,1.15275 -0.63696,1.74658c-1.19994,3.07363 -2.51869,6.09193 -3.82788,9.12061c-4.54982,-0.04494 -9.09835,-0.11555 -13.64746,-0.20752c-1.53961,-0.0278 -3.07935,-0.04921 -4.61914,-0.06348c-30.84324,-0.30238 -56.08369,-14.04705 -79.16309,-33.63134c-7.77773,-6.50897 -14.74476,-10.14888 -24.57031,-13.09766c-13.55213,-4.72389 -23.1833,-10.89046 -33.55469,-20.64355c-9.34925,-8.77441 -19.62733,-14.79636 -30.83105,-20.92383c-2.39444,-1.31216 -4.77488,-2.64646 -7.15332,-3.98731c-9.50273,-5.28256 -19.10762,-9.16323 -29.46094,-12.44531c-1.23621,-0.40219 -2.47242,-0.80437 -3.74609,-1.21875c-5.08268,-1.61538 -9.97121,-2.9908 -15.25391,-3.78125c-0.45834,-5.30369 1.06124,-8.922 3.5,-13.5c0.35804,-0.68981 0.71607,-1.37962 1.08496,-2.09033c1.12285,-2.14519 2.26659,-4.27809 3.41504,-6.40967c0.54431,-1.02625 0.54431,-1.02625 1.09961,-2.07324c6.43785,-12.08416 6.43785,-12.08416 10.90039,-13.92676c0.26812,-0.70125 0.53625,-1.4025 0.8125,-2.125c1.51289,-3.66278 3.7914,-6.02855 6.44141,-8.9375c1.42628,-1.58263 2.75791,-3.25013 4.05859,-4.9375c0.83531,-0.99 0.83531,-0.99 1.6875,-2c0.66,0 1.32,0 2,0c0.25137,-0.76055 0.50273,-1.52109 0.76172,-2.30469c1.36477,-2.97063 2.418,-3.95441 5.05078,-5.82031c3.30951,-2.42838 6.43546,-4.94873 9.49927,-7.6814c19.2058,-16.96817 42.97057,-28.20505 66.69067,-37.35131c13.63081,-5.25798 27.15232,-10.64786 40.49756,-16.59229c1.17337,-0.51836 2.34674,-1.03673 3.55566,-1.5708c7.61881,-3.43446 14.80621,-7.33873 21.94434,-11.6792c0.8901,-0.51659 1.7802,-1.03318 2.69727,-1.56543c2.88057,-1.79456 4.92949,-4.00614 7.30273,-6.43457c1.93676,-1.74475 3.90216,-3.45244 5.875,-5.15625c1.44924,-1.25743 2.88634,-2.52895 4.3125,-3.8125c0.70125,-0.62906 1.4025,-1.25812 2.125,-1.90625c0.63551,-0.57492 1.27102,-1.14984 1.92578,-1.74219c1.76172,-1.38281 1.76172,-1.38281 4.76172,-2.38281c0.28875,-0.59812 0.5775,-1.19625 0.875,-1.8125c1.125,-2.1875 1.125,-2.1875 3.5,-4.0625c2.97095,-2.40506 4.54268,-4.93644 6.625,-8.125c1.62747,-1.70497 3.28891,-3.37897 5,-5c0.66,-0.66 1.32,-1.32 2,-2z" vector-effect="non-scaling-stroke"/>
    </g>
    <g id="svg_13" transform="matrix(1 0 0 1 -2.66 -167.53)">
     <path id="svg_14" fill-rule=" nonzero" fill=" rgb(250,136,76)" stroke-miterlimit="4" stroke-linejoin=" miter" stroke-dashoffset="0" stroke-dasharray=" none" stroke=" none" stroke-linecap=" butt" d="m-14.19,-136.22c1.62893,-0.00855 1.62893,-0.00855 3.29077,-0.01727c2.29955,-0.00942 4.59912,-0.01597 6.89868,-0.01984c3.4319,-0.00958 6.86317,-0.04058 10.29493,-0.07227c19.21348,-0.09319 38.27753,1.27664 56.95312,6.06251c1.02674,0.25531 2.05348,0.51062 3.11133,0.77368c9.94559,2.54875 19.55451,5.81586 29.13867,9.47632c0.70463,0.25829 1.40927,0.51659 2.13525,0.78271c29.28437,10.74611 59.21277,29.99183 81.91944,51.39307c1.73525,1.62723 3.51322,3.10655 5.38281,4.57422c2.55202,2.24079 4.01787,4.24655 5.5625,7.25c-5.56637,-0.39063 -10.3592,-1.39076 -15.6875,-3.0625c-26.30804,-7.59394 -54.79878,1.53919 -78.09253,13.90136c-21.61338,11.93219 -41.60589,28.77942 -54.21997,50.16114c-0.6368,1.0364 -1.27359,2.07281 -1.92969,3.14062c-5.70412,9.54386 -10.05071,19.50394 -14.07031,29.85938c-0.47438,1.22203 -0.94875,2.44406 -1.4375,3.70312c-4.85003,13.51947 -7.76283,28.0615 -9.5625,42.29688c-0.17016,1.28197 -0.17016,1.28197 -0.34375,2.58984c-0.25367,3.81136 -0.32777,6.40112 1.83594,9.65234c1.83784,2.07198 1.83784,2.07198 3.78125,3.8711c4.00503,4.37654 4.22052,9.28512 4.10547,14.96875c-0.79758,6.14216 -3.63427,11.69531 -8.25391,15.85547c-7.40568,4.88774 -13.24612,6.1029 -22.125,5.0625c-6.18737,-1.73536 -10.52312,-5.67396 -14,-11c-3.05903,-6.24378 -3.21118,-13.83618 -1.27734,-20.48438c1.56981,-3.38114 2.77402,-5.16247 5.88281,-7.34375c2.62431,-1.96914 2.62431,-1.96914 3.05859,-4.96484c-0.30819,-26.78207 -8.89222,-53.84588 -21.66406,-77.20703c-0.46664,-0.94231 -0.93328,-1.88461 -1.41406,-2.85547c-13.32063,-26.36861 -36.25273,-44.17181 -61.58594,-58.14453c-1.36898,-0.76958 -1.36898,-0.76958 -2.76563,-1.55469c-26.82787,-14.30228 -57.0927,-13.78124 -86.10327,-7.69898c-2.1311,0.25367 -2.1311,0.25367 -5.1311,-0.74633c6.27323,-6.55204 12.88888,-12.37726 20,-18c1.15379,-0.9217 2.30743,-1.84359 3.46094,-2.76563c6.68906,-5.32482 13.45828,-10.43704 20.53906,-15.23437c1.03641,-0.73477 2.07281,-1.46954 3.14062,-2.22657c32.53667,-22.77152 70.65018,-35.88685 109.85938,-40.77343c1.19311,-0.17435 2.38622,-0.3487 3.61548,-0.52833c5.2243,-0.64783 10.43871,-0.65291 15.69702,-0.6748z" vector-effect="non-scaling-stroke"/>
    </g>
    <g id="svg_15" transform="matrix(1 0 0 1 -102.6 50.79)">
     <path id="svg_16" fill-rule=" nonzero" fill=" rgb(64,37,12)" stroke-miterlimit="4" stroke-linejoin=" miter" stroke-dashoffset="0" stroke-dasharray=" none" stroke=" none" stroke-linecap=" butt" d="m51.04,-36.42c12.87744,10.05377 23.70856,21.99154 33.39771,35.08521c0.98419,1.29164 0.98419,1.29164 1.98828,2.60937c10.08442,13.6844 14.38613,26.44761 13.01172,43.39063c-1.14888,5.55667 -2.381,11.31449 -7,15c-0.66,0 -1.32,0 -2,0c0,-0.99 0,-1.98 0,-3c-0.66,0 -1.32,0 -2,0c-0.43313,-0.94875 -0.86625,-1.8975 -1.3125,-2.875c-1.48053,-3.32542 -1.48053,-3.32542 -4.6875,-5.125c0,-0.66 0,-1.32 0,-2c-0.66,0 -1.32,0 -2,0c-0.18474,-0.68812 -0.36948,-1.37624 -0.55982,-2.08521c-5.40216,-19.72913 -11.94064,-37.32816 -26.6394,-51.9812c-1.80078,-1.93359 -1.80078,-1.93359 -1.80078,-3.93359c-0.5904,-0.26555 -1.18079,-0.5311 -1.78907,-0.80469c-2.2681,-1.22622 -3.74446,-2.52883 -5.58593,-4.32031c-17.4358,-15.53077 -40.75479,-21.87855 -63.625,-20.875c-7.90623,0.80208 -14.81081,3.74489 -22,7c-1.08282,0.44472 -1.08282,0.44472 -2.1875,0.89843c-17.54444,7.71106 -28.60541,27.27774 -37.65845,43.13135c-2.05233,3.50376 -3.35543,5.47379 -7.15405,6.97022c-0.99,0 -1.98,0 -3,0c0,0.66 0,1.32 0,2c-6.875,3 -6.875,3 -8,3c-0.86383,-11.97352 2.82453,-22.35795 8,-33c0.40992,-0.88027 0.40992,-0.88027 0.82812,-1.77833c4.18462,-8.98541 8.57725,-16.73287 15.17188,-24.22167c0.44343,-0.60844 0.88687,-1.21688 1.34375,-1.84375c11.25521,-15.09846 32.31503,-20.45273 49.78515,-23.7461c25.99993,-3.71427 54.79946,7.16812 75.47339,22.50464z" vector-effect="non-scaling-stroke"/>
    </g>
    <g id="svg_17" transform="matrix(1 0 0 1 152.33 -295.08)">
     <path id="svg_18" fill-rule=" nonzero" fill=" rgb(245,193,149)" stroke-miterlimit="4" stroke-linejoin=" miter" stroke-dashoffset="0" stroke-dasharray=" none" stroke=" none" stroke-linecap=" butt" d="m36.51,-39.47c0.4822,1.87422 0.96062,3.74942 1.4375,5.625c0.26684,1.04414 0.53367,2.08828 0.80859,3.16406c5.21638,22.2169 2.8561,49.20588 -6.24609,70.21094c-3.25184,-1.43753 -5.50411,-3.2305 -8.08594,-5.66016c-4.87859,-4.41904 -10.07653,-8.11883 -15.53906,-11.77734c-0.96494,-0.65106 -1.92989,-1.30211 -2.92407,-1.9729c-15.06133,-10.09399 -30.70781,-19.53986 -47.45093,-26.5896c12.06064,-18.09096 43.41053,-28.19567 63.9375,-32.3125c4.73053,-0.76692 9.27752,-0.84438 14.0625,-0.6875z" vector-effect="non-scaling-stroke"/>
    </g>
    <g id="svg_19" transform="matrix(1 0 0 1 -154.3 -295.62)">
     <path id="svg_20" fill-rule=" nonzero" fill=" rgb(247,194,149)" stroke-miterlimit="4" stroke-linejoin=" miter" stroke-dashoffset="0" stroke-dasharray=" none" stroke=" none" stroke-linecap=" butt" d="m-35.7,-38.94c27.81085,1.98382 53.89962,14.30725 75.83984,31.01953c0.495,0.99 0.495,0.99 1,2c-0.62116,0.27973 -1.24233,0.55945 -1.88232,0.84766c-12.76484,5.80283 -25.05027,12.00511 -36.99268,19.33984c-1.04913,0.64002 -2.09827,1.28004 -3.1792,1.93945c-7.11273,4.44929 -13.57293,9.42403 -19.9458,14.87305c-0.57202,0.48783 -1.14404,0.97566 -1.73339,1.47827c-0.68691,0.58697 -0.68691,0.58697 -1.3877,1.18579c-0.76441,0.64711 -1.52883,1.29422 -2.31641,1.96094c-0.78246,0.67289 -1.56492,1.34578 -2.37109,2.03906c-2.19141,1.33594 -2.19141,1.33594 -4.47656,1.04688c-0.5659,-0.23461 -1.1318,-0.46922 -1.71485,-0.71094c-0.63595,-2.05915 -1.258,-4.12259 -1.875,-6.1875c-0.34804,-1.14855 -0.69609,-2.29711 -1.05468,-3.48047c-2.95795,-11.25543 -3.38979,-22.38406 -3.33106,-33.94385c0.01076,-2.51635 0.00003,-5.032 -0.01269,-7.54833c-0.01411,-16.84194 -0.01411,-16.84194 2.27343,-24.83985c1,-1 1,-1 3.16016,-1.01953z" vector-effect="non-scaling-stroke"/>
    </g>
    <g id="svg_21" transform="matrix(1 0 0 1 -101.92 -146.43)">
     <path id="svg_22" fill-rule=" nonzero" fill=" rgb(62,31,11)" stroke-miterlimit="4" stroke-linejoin=" miter" stroke-dashoffset="0" stroke-dasharray=" none" stroke=" none" stroke-linecap=" butt" d="m-24.24,-23.12c3.99915,3.0276 5.20519,6.78666 6.75,11.375c2.75028,7.55332 6.18033,11.09016 13.25,14.625c6.84107,0.53981 13.01421,0.68357 19,-3c2.19836,-2.00877 4.27026,-4.07968 6.30078,-6.25781c2.41985,-2.48105 3.49677,-2.71927 7.01172,-3.11719c4.59348,0.46713 5.80198,1.8954 8.6875,5.375c0.33,0.33 0.66,0.66 1,1c0.14555,6.69528 -3.25805,10.51333 -7.28516,15.64453c-1.91103,2.13936 -1.91103,2.13936 -1.71484,4.35547c-16.11695,6.23362 -27.29895,9.65449 -44,3c-5.14302,-2.5508 -9.14765,-5.71961 -13,-10c-1.02094,-1.11375 -1.02094,-1.11375 -2.0625,-2.25c-2.59276,-3.68004 -4.20633,-7.61308 -5.9375,-11.75c-0.33,-0.66 -0.66,-1.32 -1,-2c-0.19993,-2.11926 -0.31284,-4.24723 -0.375,-6.375c-0.07348,-1.71316 -0.07348,-1.71316 -0.14844,-3.46094c0.52344,-3.16406 0.52344,-3.16406 2.79297,-5.54687c4.08461,-2.41921 6.03471,-2.21348 10.73047,-1.61719z" vector-effect="non-scaling-stroke"/>
    </g>
    <g id="svg_23" transform="matrix(1 0 0 1 101.09 -147.34)">
     <path id="svg_24" fill-rule=" nonzero" fill=" rgb(64,33,11)" stroke-miterlimit="4" stroke-linejoin=" miter" stroke-dashoffset="0" stroke-dasharray=" none" stroke=" none" stroke-linecap=" butt" d="m33.75,-23.2c3.40719,2.74238 3.91369,4.3635 4.5,8.6875c-0.81859,12.90486 -10.83075,24.44426 -19.84766,33.01563c-8.16537,6.40875 -19.76787,6.21758 -29.65234,5.29687c-9.92084,-2.29649 -19.19221,-8.65963 -25,-17c-1.68173,-2.89349 -2,-3.95903 -2,-7.4375c1.30351,-4.64375 2.87595,-6.11862 7,-8.5625c4.25476,0.08333 6.37962,0.49021 9.69531,3.21484c1.2027,1.34772 1.2027,1.34772 2.42969,2.72266c3.8106,4.23062 6.51967,6.52677 12.19922,7.43359c7.4621,0.20968 13.6925,-1.7092 19.27344,-6.83984c2.85864,-3.56675 4.06223,-7.38187 5.40234,-11.71875c1.11502,-3.51695 1.90409,-5.68919 4.1875,-8.625c4.13945,-1.74777 7.55213,-1.53874 11.8125,-0.1875z" vector-effect="non-scaling-stroke"/>
    </g>
    <g id="svg_25" transform="matrix(1 0 0 1 -1.16 -53.98)">
     <path id="svg_26" fill-rule=" nonzero" fill=" rgb(58,31,11)" stroke-miterlimit="4" stroke-linejoin=" miter" stroke-dashoffset="0" stroke-dasharray=" none" stroke=" none" stroke-linecap=" butt" d="m10.82,-21.56c5.77495,3.6235 10.07707,8.45965 12.1875,15c1.16983,8.01639 -0.42837,14.34707 -5,21c-4.20202,4.81385 -9.54134,7.60881 -15.83203,8.32031c-6.57423,0.24809 -11.84565,-0.25729 -17.16797,-4.32031c-4.62122,-4.35302 -7.62627,-8.606 -8.33594,-15.05078c-0.1522,-12.70908 -0.1522,-12.70908 4.33594,-17.94922c9.02438,-7.52593 18.30777,-10.01763 29.8125,-7z" vector-effect="non-scaling-stroke"/>
    </g>
    <g id="svg_27" transform="matrix(1 0 0 1 -254.71 -8.54)">
     <path id="svg_28" fill-rule=" nonzero" fill=" rgb(238,250,243)" stroke-miterlimit="4" stroke-linejoin=" miter" stroke-dashoffset="0" stroke-dasharray=" none" stroke=" none" stroke-linecap=" butt" d="m4.55,-19.01c3.97869,1.84725 6.46038,4.21668 8.9375,7.8125c2.4058,7.21741 1.18105,14.35691 -1.9375,21.1875c-2.10996,2.91376 -4.43578,5.4818 -7,8c-0.33,0.33 -0.66,0.66 -1,1c-4.04782,0.53361 -8.20957,0.90793 -11.92578,-0.97656c-3.51243,-2.84132 -5.76824,-5.75841 -6.375,-10.25c-0.04821,-9.8674 2.18346,-18.29059 9.05078,-25.64844c3.42438,-1.71219 6.56368,-1.85401 10.25,-1.125z" vector-effect="non-scaling-stroke"/>
    </g>
    <g id="svg_29" transform="matrix(1 0 0 1 -259.61 32)">
     <path id="svg_30" fill-rule=" nonzero" fill=" rgb(240,243,234)" stroke-miterlimit="4" stroke-linejoin=" miter" stroke-dashoffset="0" stroke-dasharray=" none" stroke=" none" stroke-linecap=" butt" d="m1.45,-15.54c3.84739,0.79851 5.50621,1.49249 8.25,4.3125c3.8994,5.98836 4.77286,11.64114 3.75,18.6875c-1.96416,3.95963 -4.96381,6.30886 -9,8c-3.95442,0.76018 -7.5042,0.84385 -11.07031,-1.16797c-4.35012,-3.54015 -6.59179,-6.81725 -7.23047,-12.51562c-0.02722,-6.39559 0.45828,-10.83393 4.63672,-15.95313c3.08812,-2.52994 6.87258,-1.72685 10.66406,-1.36328z" vector-effect="non-scaling-stroke"/>
    </g>
    <g id="svg_31" transform="matrix(1 0 0 1 258.34 -160.55)">
     <path id="svg_32" fill-rule=" nonzero" fill=" rgb(69,28,3)" stroke-miterlimit="4" stroke-linejoin=" miter" stroke-dashoffset="0" stroke-dasharray=" none" stroke=" none" stroke-linecap=" butt" d="m2.5,-6c0.66,0.33 1.32,0.66 2,1c-2.63887,4.20264 -5.3644,7.56638 -9,11c0.32434,-5.35153 3.49705,-8.2828 7,-12z" vector-effect="non-scaling-stroke"/>
    </g>
    <g id="svg_33" transform="matrix(1 0 0 1 -166.16 7.45)">
     <path id="svg_34" fill-rule=" nonzero" fill=" rgb(75,31,5)" stroke-miterlimit="4" stroke-linejoin=" miter" stroke-dashoffset="0" stroke-dasharray=" none" stroke=" none" stroke-linecap=" butt" d="m4,-4c0.33,0.99 0.66,1.98 1,3c-4.29688,4.00391 -4.29688,4.00391 -6,5c-1.32,-0.33 -2.64,-0.66 -4,-1c2.97,-2.31 5.94,-4.62 9,-7z" vector-effect="non-scaling-stroke"/>
    </g>
    <g id="svg_35" transform="matrix(1 0 0 1 -120.16 -330.55)">
     <path id="svg_36" fill-rule=" nonzero" fill=" rgb(55,28,11)" stroke-miterlimit="4" stroke-linejoin=" miter" stroke-dashoffset="0" stroke-dasharray=" none" stroke=" none" stroke-linecap=" butt" d="m-6,-4c3.49844,0.63389 5.84087,2.05178 8.75,4.0625c1.19883,0.82178 1.19883,0.82178 2.42188,1.66016c0.90492,0.63228 0.90492,0.63228 1.82812,1.27734c-0.99,0.495 -0.99,0.495 -2,1c-2.82031,-1.21484 -2.82031,-1.21484 -6.125,-2.9375c-1.0957,-0.5659 -2.19141,-1.1318 -3.32031,-1.71484c-0.84305,-0.44473 -1.6861,-0.88946 -2.55469,-1.34766c0.33,-0.66 0.66,-1.32 1,-2z" vector-effect="non-scaling-stroke"/>
    </g>
    <g id="svg_37" transform="matrix(1 0 0 1 -177.66 19.95)">
     <path id="svg_38" fill-rule=" nonzero" fill=" rgb(74,30,0)" stroke-miterlimit="4" stroke-linejoin=" miter" stroke-dashoffset="0" stroke-dasharray=" none" stroke=" none" stroke-linecap=" butt" d="m1.5,-4.5c0.66,0 1.32,0 2,0c-0.57353,3.87132 -2.48704,6.08173 -5,9c-0.66,-0.33 -1.32,-0.66 -2,-1c2.75,-5.75 2.75,-5.75 5,-8z" vector-effect="non-scaling-stroke"/>
    </g>
    <g id="svg_39" transform="matrix(1 0 0 1 32.84 7.45)">
     <path id="svg_40" fill-rule=" nonzero" fill=" rgb(78,28,6)" stroke-miterlimit="4" stroke-linejoin=" miter" stroke-dashoffset="0" stroke-dasharray=" none" stroke=" none" stroke-linecap=" butt" d="m0,-4c0.99,0.33 1.98,0.66 3,1c-3.75,5.875 -3.75,5.875 -6,7c0.54724,-3.37463 1.0549,-5.08235 3,-8z" vector-effect="non-scaling-stroke"/>
    </g>
    <g id="svg_41" transform="matrix(1 0 0 1 220.84 -221.05)">
     <path id="svg_42" fill-rule=" nonzero" fill=" rgb(55,33,24)" stroke-miterlimit="4" stroke-linejoin=" miter" stroke-dashoffset="0" stroke-dasharray=" none" stroke=" none" stroke-linecap=" butt" d="m-4,-3.5c3.79521,1.49098 5.61043,3.75701 8,7c-3,0 -3,0 -5.6875,-2.375c-2.3125,-2.625 -2.3125,-2.625 -2.3125,-4.625z" vector-effect="non-scaling-stroke"/>
    </g>
    <g id="svg_43" transform="matrix(1 0 0 1 231.84 -127.55)">
     <path id="svg_44" fill-rule=" nonzero" fill=" rgb(67,22,0)" stroke-miterlimit="4" stroke-linejoin=" miter" stroke-dashoffset="0" stroke-dasharray=" none" stroke=" none" stroke-linecap=" butt" d="m2,-4c0.99,0.33 1.98,0.66 3,1c-0.99,0.33 -1.98,0.66 -3,1c-0.33,0.99 -0.66,1.98 -1,3c-2.0625,1.6875 -2.0625,1.6875 -4,3c-0.66,-0.33 -1.32,-0.66 -2,-1c2.31,-2.31 4.62,-4.62 7,-7z" vector-effect="non-scaling-stroke"/>
    </g>
    <g id="svg_45" transform="matrix(1 0 0 1 229.34 -211.05)">
     <path id="svg_46" fill-rule=" nonzero" fill=" rgb(39,21,12)" stroke-miterlimit="4" stroke-linejoin=" miter" stroke-dashoffset="0" stroke-dasharray=" none" stroke=" none" stroke-linecap=" butt" d="m-3.5,-4.5c1.1754,0.92653 2.34011,1.86663 3.5,2.8125c0.64969,0.52207 1.29937,1.04414 1.96875,1.58203c1.53125,1.60547 1.53125,1.60547 1.53125,4.60547c-0.99,-0.66 -1.98,-1.32 -3,-2c0,-0.66 0,-1.32 0,-2c-0.66,0 -1.32,0 -2,0c-0.66,-1.65 -1.32,-3.3 -2,-5z" vector-effect="non-scaling-stroke"/>
    </g>
    <g id="svg_47" transform="matrix(1 0 0 1 -111.66 -279.55)">
     <path id="svg_48" fill-rule=" nonzero" fill=" rgb(235,138,83)" stroke-miterlimit="4" stroke-linejoin=" miter" stroke-dashoffset="0" stroke-dasharray=" none" stroke=" none" stroke-linecap=" butt" d="m2.5,-3c0.66,0.33 1.32,0.66 2,1c-2.31,1.65 -4.62,3.3 -7,5c-0.66,-0.66 -1.32,-1.32 -2,-2c5.27344,-3.22266 5.27344,-3.22266 7,-4z" vector-effect="non-scaling-stroke"/>
    </g>
    <g id="svg_49" transform="matrix(1 0 0 1 130.84 -315.55)">
     <path id="svg_50" fill-rule=" nonzero" fill=" rgb(243,200,160)" stroke-miterlimit="4" stroke-linejoin=" miter" stroke-dashoffset="0" stroke-dasharray=" none" stroke=" none" stroke-linecap=" butt" d="m3,-3c0.66,0.33 1.32,0.66 2,1c-1.32,0.33 -2.64,0.66 -4,1c0.66,-0.66 1.32,-1.32 2,-2zm-2,2c0,0.66 0,1.32 0,2c-0.99,0.66 -1.98,1.32 -3,2c-0.99,-0.33 -1.98,-0.66 -3,-1c3.75,-3 3.75,-3 6,-3z" vector-effect="non-scaling-stroke"/>
    </g>
   </g>
  </g>
 </g>
</svg>